<svg  class="" version="1.1" id="Layer_1" xmlns="http://www.w3.org/2000/svg" xmlns:xlink="http://www.w3.org/1999/xlink" x="0px" y="0px"
	 width="20px" height="20px" viewBox="0 0 50 50" enable-background="new 0 0 50 50" xml:space="preserve">
  
<path d="M46.347,24.976c0-0.783-1.779-2.869-3.154-2.857h-3.003l0.009-1.99c0-0.783-1.78-2.869-3.152-2.857h-3.597
	l0.009-2.226c0-0.784-1.78-2.87-3.151-2.858h-4.119c-0.032,0-0.064,0.003-0.098,0.009l0.039-8.62c0-0.783-1.78-2.869-3.154-2.857
	h-4.118c-0.928,0-2.917,2.37-2.917,3.154l-0.172,20.215l-4.758-7.889c-0.358-0.585-2.829-1.219-3.996-0.495l-3.516,2.145
	c-0.792,0.483-1.408,3.292-1.051,3.877l10.819,18.128c0.031,0.05,0.066,0.094,0.105,0.137l4.587,7.651
	c0.164,0.274,0.432,0.45,0.733,0.517c0.396,0.194,0.925,0.314,1.507,0.317l18.79,0.057c1.046,0.003,1.923-0.375,2.166-0.888
	c0.142-0.098,0.265-0.228,0.354-0.389l4.62-8.346c0.047-0.084,0.08-0.171,0.103-0.258h0.057L46.347,24.976z M39.541,46.167
	c-0.006,0.013-0.01,0.024-0.017,0.037c-0.17-0.022-0.347-0.037-0.529-0.037l-18.79-0.057c-0.068,0-0.135,0.002-0.201,0.005
	l-4.942-8.241c-0.081-0.137-0.188-0.248-0.312-0.335L4.283,20.384l4.844-2.957l6.679,10.948c0.209,0.582,0.85,1.008,1.608,1.008
	h0.792V3.655h5.675V18.67h0.01v0.473c0,0.784,0.49,1.419,1.094,1.419c0.604,0,1.094-0.635,1.094-1.419V18.67h-0.018l0.016-3.547
	h5.134v8.868h0.012v0.178c0,0.783,0.488,1.417,1.092,1.417c0.605,0,1.095-0.635,1.095-1.417v-0.178h0.01l0.017-3.783h4.516v7.33
	h0.01v0.147c0,0.784,0.49,1.42,1.094,1.42c0.605,0,1.095-0.636,1.095-1.42v-0.147h0.017l0.01-2.483h3.925v12.878L39.541,46.167z"/>
</svg>