<svg version="1.1" id="Layer_1" xmlns="http://www.w3.org/2000/svg" width="28px" height="28px" viewBox="0 0 25 25" enable-background="new 0 0 25 25" xml:space="preserve">
<g>
	<g>
		<path fill="none" stroke="#F1F2F2" stroke-width="0.6484" stroke-miterlimit="10" d="M3,12.327V1.797C3,1.083,3.584,0.5,4.297,0.5
			h17.406C22.416,0.5,23,1.083,23,1.797v21.406c0,0.713-0.584,1.297-1.297,1.297H4.297C3.584,24.5,3,23.916,3,23.203V12.327"/>
	</g>
	<path d="M3.144,0.751v11.675v11.908h19.652V0.751H3.144z M11.415,6.474c0.079-0.454,0.407-0.79,0.699-1.165
		c0.327-0.42,0.517-0.898,0.743-1.357c0.074-0.148,0.398-0.204,0.438,0c0.143,0.717,0.771,1.252,1.121,1.897
		c0.159,0.294,0.271,0.612,0.19,0.935c-0.093,0.367-0.392,0.658-0.735,0.893c-0.223,0.152-0.545-0.11-0.32-0.263
		c0.306-0.208,0.626-0.482,0.631-0.83c0.002-0.278-0.137-0.536-0.297-0.775c-0.275-0.409-0.62-0.802-0.839-1.235
		c-0.118,0.249-0.243,0.495-0.399,0.728c-0.232,0.345-0.617,0.656-0.74,1.044c-0.1,0.311-0.092,0.634,0.234,0.849
		c0.273,0.18,0.621,0.283,0.93,0.413c0.26,0.11,0.031,0.431-0.229,0.321c-0.367-0.155-0.797-0.277-1.093-0.523
		C11.443,7.152,11.355,6.821,11.415,6.474z M7.858,11.381h4.237V8.39h2.201v2.991h4.171v1.881c-0.483-0.151-0.985-0.253-1.553-0.249
		c-1.104,0.01-2.253,0.613-3.243,0.933c-1.703,0.55-3.004-0.32-4.6-0.606c-0.42-0.075-0.822-0.047-1.214,0.037V11.381z
		 M20.169,18.348H6.291v-1.805h1.567v-2.444c0.913-0.165,1.735-0.055,2.87,0.351c0.703,0.252,1.355,0.322,2.113,0.275
		c0.7-0.043,1.371-0.316,2.005-0.544c1.434-0.516,2.428-0.557,3.621-0.223v2.585h1.701V18.348z"/>
</g>
</svg>
